<svg xmlns="http://www.w3.org/2000/svg" viewBox="0 0 500 500" width="100%" height="100%" fill="none">
  <defs>
    <linearGradient id="bracketLeftGrad" x1="0%" y1="0%" x2="100%" y2="100%">
      <stop offset="0%" stop-color="#1D4ED8" />
      <stop offset="100%" stop-color="#2563EB" />
    </linearGradient>
    <linearGradient id="bracketRightGrad" x1="0%" y1="0%" x2="100%" y2="100%">
      <stop offset="0%" stop-color="#06B6D4" />
      <stop offset="100%" stop-color="#0891B2" />
    </linearGradient>
    <linearGradient id="purpleNodeGrad" x1="0%" y1="0%" x2="100%" y2="100%">
      <stop offset="0%" stop-color="#8B5CF6" />
      <stop offset="100%" stop-color="#6366F1" />
    </linearGradient>
    <linearGradient id="dividerGrad" x1="0%" y1="0%" x2="100%" y2="0%">
      <stop offset="0%" stop-color="#2563EB" />
      <stop offset="50%" stop-color="#8B5CF6" />
      <stop offset="100%" stop-color="#06B6D4" />
    </linearGradient>
  </defs>
  <style>
    .brand-title { font-family: 'Inter', -apple-system, sans-serif; font-weight: 800; font-size: 80px; }
    .brand-tagline { font-family: 'Inter', -apple-system, sans-serif; font-weight: 500; font-size: 20px; fill: #475569; letter-spacing: 0.5px; }
  </style>
  <rect width="100%" height="100%" fill="#F8FAFC" rx="24" />
  <path d="M 160,135 L 115,180 L 160,225" stroke="url(#bracketLeftGrad)" stroke-width="18" stroke-linecap="round" stroke-linejoin="round" />
  <path d="M 340,135 L 385,180 L 340,225" stroke="url(#bracketRightGrad)" stroke-width="18" stroke-linecap="round" stroke-linejoin="round" />
  <line x1="250" y1="120" x2="200" y2="220" stroke="#0F172A" stroke-width="8" stroke-linecap="round" />
  <line x1="250" y1="120" x2="300" y2="220" stroke="#0F172A" stroke-width="8" stroke-linecap="round" />
  <circle cx="250" cy="170" r="8" fill="#0F172A" />
  <circle cx="205" cy="190" r="7" fill="#06B6D4" />
  <circle cx="295" cy="190" r="7" fill="#06B6D4" />
  <circle cx="250" cy="100" r="24" fill="#2563EB" />
  <circle cx="200" cy="235" r="24" fill="url(#purpleNodeGrad)" />
  <circle cx="300" cy="235" r="24" fill="url(#purpleNodeGrad)" />
  <text x="250" y="345" text-anchor="middle" class="brand-title" fill="#0F172A">CP<tspan fill="#06B6D4">Kit</tspan></text>
  <line x1="100" x2="390" y1="380" y2="380" stroke="url(#dividerGrad)" stroke-width="4" stroke-linecap="round" />
  <circle cx="395" cy="380" r="5" fill="#8B5CF6" />
  <text x="250" y="420" text-anchor="middle" class="brand-tagline">Everything a Competitive Programmer Needs</text>
</svg>
